<mxfile host="app.diagrams.net" modified="2023-12-18T14:20:43.767Z" agent="Mozilla/5.0 (Macintosh; Intel Mac OS X 10_15_7) AppleWebKit/605.1.15 (KHTML, like Gecko) Version/17.1.2 Safari/605.1.15" etag="sjmksylbEsWABJ23dud_" version="22.1.11" type="github">
  <diagram name="第 1 页" id="Rva1IZ9xfoGEIt70upV4">
    <mxGraphModel dx="1452" dy="1306" grid="1" gridSize="9" guides="1" tooltips="1" connect="1" arrows="1" fold="1" page="1" pageScale="1" pageWidth="827" pageHeight="1169" math="0" shadow="0">
      <root>
        <mxCell id="0" />
        <mxCell id="1" parent="0" />
        <mxCell id="ssL3TkD7wYPnax2r0-gE-20" value="度小店" style="shape=umlLifeline;perimeter=lifelinePerimeter;whiteSpace=wrap;html=1;container=1;dropTarget=0;collapsible=0;recursiveResize=0;outlineConnect=0;portConstraint=eastwest;newEdgeStyle={&quot;edgeStyle&quot;:&quot;elbowEdgeStyle&quot;,&quot;elbow&quot;:&quot;vertical&quot;,&quot;curved&quot;:0,&quot;rounded&quot;:0};fillColor=#FFFF99;strokeColor=#b51a00;strokeWidth=2;" vertex="1" parent="1">
          <mxGeometry x="288" y="144" width="100" height="513" as="geometry" />
        </mxCell>
        <mxCell id="ssL3TkD7wYPnax2r0-gE-29" value="" style="html=1;points=[[0,0,0,0,5],[0,1,0,0,-5],[1,0,0,0,5],[1,1,0,0,-5]];perimeter=orthogonalPerimeter;outlineConnect=0;targetShapes=umlLifeline;portConstraint=eastwest;newEdgeStyle={&quot;curved&quot;:0,&quot;rounded&quot;:0};" vertex="1" parent="ssL3TkD7wYPnax2r0-gE-20">
          <mxGeometry x="45" y="54" width="10" height="108" as="geometry" />
        </mxCell>
        <mxCell id="ssL3TkD7wYPnax2r0-gE-23" value="" style="shape=umlLifeline;perimeter=lifelinePerimeter;whiteSpace=wrap;html=1;container=1;dropTarget=0;collapsible=0;recursiveResize=0;outlineConnect=0;portConstraint=eastwest;newEdgeStyle={&quot;curved&quot;:0,&quot;rounded&quot;:0};participant=umlActor;" vertex="1" parent="1">
          <mxGeometry x="108" y="144" width="27" height="531" as="geometry" />
        </mxCell>
        <mxCell id="ssL3TkD7wYPnax2r0-gE-26" value="" style="html=1;points=[[0,0,0,0,5],[0,1,0,0,-5],[1,0,0,0,5],[1,1,0,0,-5]];perimeter=orthogonalPerimeter;outlineConnect=0;targetShapes=umlLifeline;portConstraint=eastwest;newEdgeStyle={&quot;curved&quot;:0,&quot;rounded&quot;:0};" vertex="1" parent="ssL3TkD7wYPnax2r0-gE-23">
          <mxGeometry x="9" y="54" width="10" height="108" as="geometry" />
        </mxCell>
        <mxCell id="ssL3TkD7wYPnax2r0-gE-36" value="" style="html=1;points=[[0,0,0,0,5],[0,1,0,0,-5],[1,0,0,0,5],[1,1,0,0,-5]];perimeter=orthogonalPerimeter;outlineConnect=0;targetShapes=umlLifeline;portConstraint=eastwest;newEdgeStyle={&quot;curved&quot;:0,&quot;rounded&quot;:0};" vertex="1" parent="ssL3TkD7wYPnax2r0-gE-23">
          <mxGeometry x="9" y="189" width="10" height="108" as="geometry" />
        </mxCell>
        <mxCell id="ssL3TkD7wYPnax2r0-gE-24" value="收银台" style="shape=umlLifeline;perimeter=lifelinePerimeter;whiteSpace=wrap;html=1;container=1;dropTarget=0;collapsible=0;recursiveResize=0;outlineConnect=0;portConstraint=eastwest;newEdgeStyle={&quot;edgeStyle&quot;:&quot;elbowEdgeStyle&quot;,&quot;elbow&quot;:&quot;vertical&quot;,&quot;curved&quot;:0,&quot;rounded&quot;:0};fillColor=#d5e8d4;strokeColor=#82b366;strokeWidth=2;" vertex="1" parent="1">
          <mxGeometry x="549" y="139.5" width="100" height="517.5" as="geometry" />
        </mxCell>
        <mxCell id="ssL3TkD7wYPnax2r0-gE-31" value="" style="html=1;points=[[0,0,0,0,5],[0,1,0,0,-5],[1,0,0,0,5],[1,1,0,0,-5]];perimeter=orthogonalPerimeter;outlineConnect=0;targetShapes=umlLifeline;portConstraint=eastwest;newEdgeStyle={&quot;curved&quot;:0,&quot;rounded&quot;:0};" vertex="1" parent="ssL3TkD7wYPnax2r0-gE-24">
          <mxGeometry x="45" y="58.5" width="10" height="112.5" as="geometry" />
        </mxCell>
        <mxCell id="ssL3TkD7wYPnax2r0-gE-37" value="" style="html=1;points=[[0,0,0,0,5],[0,1,0,0,-5],[1,0,0,0,5],[1,1,0,0,-5]];perimeter=orthogonalPerimeter;outlineConnect=0;targetShapes=umlLifeline;portConstraint=eastwest;newEdgeStyle={&quot;curved&quot;:0,&quot;rounded&quot;:0};" vertex="1" parent="ssL3TkD7wYPnax2r0-gE-24">
          <mxGeometry x="45" y="202.5" width="10" height="112.5" as="geometry" />
        </mxCell>
        <mxCell id="ssL3TkD7wYPnax2r0-gE-27" value="创建订单" style="edgeStyle=orthogonalEdgeStyle;rounded=0;orthogonalLoop=1;jettySize=auto;html=1;curved=0;strokeColor=#b51a00;" edge="1" parent="1" source="ssL3TkD7wYPnax2r0-gE-26" target="ssL3TkD7wYPnax2r0-gE-29">
          <mxGeometry relative="1" as="geometry">
            <mxPoint x="279" y="238" as="targetPoint" />
          </mxGeometry>
        </mxCell>
        <mxCell id="ssL3TkD7wYPnax2r0-gE-30" value="预下单" style="edgeStyle=orthogonalEdgeStyle;rounded=0;orthogonalLoop=1;jettySize=auto;html=1;curved=0;strokeColor=#CC0000;" edge="1" parent="1" source="ssL3TkD7wYPnax2r0-gE-29" target="ssL3TkD7wYPnax2r0-gE-31">
          <mxGeometry relative="1" as="geometry">
            <mxPoint x="540" y="238" as="targetPoint" />
          </mxGeometry>
        </mxCell>
        <mxCell id="ssL3TkD7wYPnax2r0-gE-34" value="支付参数" style="html=1;verticalAlign=bottom;endArrow=open;dashed=1;endSize=8;curved=0;rounded=0;strokeColor=#CC0000;" edge="1" parent="1">
          <mxGeometry relative="1" as="geometry">
            <mxPoint x="594" y="288" as="sourcePoint" />
            <mxPoint x="342" y="288" as="targetPoint" />
          </mxGeometry>
        </mxCell>
        <mxCell id="ssL3TkD7wYPnax2r0-gE-35" value="支付参数" style="html=1;verticalAlign=bottom;endArrow=open;dashed=1;endSize=8;curved=0;rounded=0;strokeColor=#CC0000;" edge="1" parent="1" source="ssL3TkD7wYPnax2r0-gE-29">
          <mxGeometry relative="1" as="geometry">
            <mxPoint x="324" y="288" as="sourcePoint" />
            <mxPoint x="126" y="288" as="targetPoint" />
          </mxGeometry>
        </mxCell>
        <mxCell id="ssL3TkD7wYPnax2r0-gE-38" value="&lt;div style=&quot;text-align: left; padding-left: 0px;&quot; data-slate-node=&quot;element&quot; data-morpho-type=&quot;paragraph&quot; class=&quot;mp-paragraph-wrapper&quot;&gt;innerChannelAllInfo&lt;/div&gt;" style="edgeStyle=orthogonalEdgeStyle;rounded=0;orthogonalLoop=1;jettySize=auto;html=1;curved=0;strokeColor=#b51a00;entryX=0;entryY=0.4;entryDx=0;entryDy=0;entryPerimeter=0;" edge="1" parent="1" source="ssL3TkD7wYPnax2r0-gE-36" target="ssL3TkD7wYPnax2r0-gE-37">
          <mxGeometry relative="1" as="geometry">
            <mxPoint x="332" y="369" as="targetPoint" />
            <mxPoint x="126" y="369" as="sourcePoint" />
          </mxGeometry>
        </mxCell>
        <mxCell id="ssL3TkD7wYPnax2r0-gE-39" value="具体支付渠道列表" style="html=1;verticalAlign=bottom;endArrow=open;dashed=1;endSize=8;curved=0;rounded=0;strokeColor=#CC0000;" edge="1" parent="1" target="ssL3TkD7wYPnax2r0-gE-36">
          <mxGeometry relative="1" as="geometry">
            <mxPoint x="594" y="423" as="sourcePoint" />
            <mxPoint x="342" y="423" as="targetPoint" />
          </mxGeometry>
        </mxCell>
        <mxCell id="ssL3TkD7wYPnax2r0-gE-81" value="&lt;font color=&quot;#ff4013&quot;&gt;内嵌支付&lt;/font&gt;" style="html=1;align=center;verticalAlign=middle;rounded=1;absoluteArcSize=1;arcSize=10;dashed=1;whiteSpace=wrap;strokeColor=#FF0000;" vertex="1" parent="1">
          <mxGeometry x="288" y="333" width="140" height="40" as="geometry" />
        </mxCell>
        <mxCell id="ssL3TkD7wYPnax2r0-gE-82" value="" style="html=1;points=[[0,0,0,0,5],[0,1,0,0,-5],[1,0,0,0,5],[1,1,0,0,-5]];perimeter=orthogonalPerimeter;outlineConnect=0;targetShapes=umlLifeline;portConstraint=eastwest;newEdgeStyle={&quot;curved&quot;:0,&quot;rounded&quot;:0};" vertex="1" parent="1">
          <mxGeometry x="114.5" y="504" width="10" height="108" as="geometry" />
        </mxCell>
        <mxCell id="ssL3TkD7wYPnax2r0-gE-83" value="" style="html=1;points=[[0,0,0,0,5],[0,1,0,0,-5],[1,0,0,0,5],[1,1,0,0,-5]];perimeter=orthogonalPerimeter;outlineConnect=0;targetShapes=umlLifeline;portConstraint=eastwest;newEdgeStyle={&quot;curved&quot;:0,&quot;rounded&quot;:0};" vertex="1" parent="1">
          <mxGeometry x="591.5" y="513" width="10" height="112.5" as="geometry" />
        </mxCell>
        <mxCell id="ssL3TkD7wYPnax2r0-gE-84" value="&lt;div style=&quot;text-align: left; padding-left: 0px;&quot; data-slate-node=&quot;element&quot; data-morpho-type=&quot;paragraph&quot; class=&quot;mp-paragraph-wrapper&quot;&gt;&lt;div style=&quot;padding-left: 0px;&quot; data-slate-node=&quot;element&quot; data-morpho-type=&quot;paragraph&quot; class=&quot;mp-paragraph-wrapper&quot;&gt;channelAllInfo&lt;/div&gt;&lt;/div&gt;" style="edgeStyle=orthogonalEdgeStyle;rounded=0;orthogonalLoop=1;jettySize=auto;html=1;curved=0;strokeColor=#b51a00;entryX=0;entryY=0.4;entryDx=0;entryDy=0;entryPerimeter=0;" edge="1" parent="1" source="ssL3TkD7wYPnax2r0-gE-82" target="ssL3TkD7wYPnax2r0-gE-83">
          <mxGeometry relative="1" as="geometry">
            <mxPoint x="329.5" y="540" as="targetPoint" />
            <mxPoint x="123.5" y="540" as="sourcePoint" />
          </mxGeometry>
        </mxCell>
        <mxCell id="ssL3TkD7wYPnax2r0-gE-85" value="具体支付渠道列表" style="html=1;verticalAlign=bottom;endArrow=open;dashed=1;endSize=8;curved=0;rounded=0;strokeColor=#CC0000;" edge="1" parent="1" target="ssL3TkD7wYPnax2r0-gE-82">
          <mxGeometry relative="1" as="geometry">
            <mxPoint x="591.5" y="594" as="sourcePoint" />
            <mxPoint x="339.5" y="594" as="targetPoint" />
          </mxGeometry>
        </mxCell>
        <mxCell id="ssL3TkD7wYPnax2r0-gE-86" value="&lt;font color=&quot;#ff4013&quot;&gt;&lt;span style=&quot;caret-color: rgb(255, 64, 19);&quot;&gt;非内嵌支付&lt;/span&gt;&lt;/font&gt;" style="html=1;align=center;verticalAlign=middle;rounded=1;absoluteArcSize=1;arcSize=10;dashed=1;whiteSpace=wrap;strokeColor=#FF0000;" vertex="1" parent="1">
          <mxGeometry x="285.5" y="504" width="140" height="40" as="geometry" />
        </mxCell>
      </root>
    </mxGraphModel>
  </diagram>
</mxfile>
